{
	"asset":{
		"generator":"Khronos glTF Blender I/O v4.0.44",
		"version":"2.0"
	},
	"scene":0,
	"scenes":[
		{
			"name":"Scene",
			"nodes":[
				0
			]
		}
	],
	"nodes":[
		{
			"mesh":0,
			"name":"2024 ROVER [v.3]",
			"rotation":[
				0.7111614942550659,
				0,
				0,
				0.703028678894043
			],
			"scale":[
				0.0020715852733701468,
				0.0020715852733701468,
				0.0020715852733701468
			],
			"translation":[
				0.280289888381958,
				0.3272629380226135,
				-0.05215775966644287
			]
		}
	],
	"meshes":[
		{
			"name":"2024 ROVER [v.3]",
			"primitives":[
				{
					"attributes":{
						"POSITION":0,
						"NORMAL":1
					},
					"indices":2
				}
			]
		}
	],
	"accessors":[
		{
			"bufferView":0,
			"componentType":5126,
			"count":2422822,
			"max":[
				528.246826171875,
				1254.090576171875,
				527.6197509765625
			],
			"min":[
				-536.1400146484375,
				-1545.5457763671875,
				-448.09869384765625
			],
			"type":"VEC3"
		},
		{
			"bufferView":1,
			"componentType":5126,
			"count":2422822,
			"type":"VEC3"
		},
		{
			"bufferView":2,
			"componentType":5125,
			"count":2481684,
			"type":"SCALAR"
		}
	],
	"bufferViews":[
		{
			"buffer":0,
			"byteLength":29073864,
			"byteOffset":0,
			"target":34962
		},
		{
			"buffer":0,
			"byteLength":29073864,
			"byteOffset":29073864,
			"target":34962
		},
		{
			"buffer":0,
			"byteLength":9926736,
			"byteOffset":58147728,
			"target":34963
		}
	],
	"buffers":[
		{
			"byteLength":68074464,
			"uri":"Rover.bin"
		}
	]
}
